<svg id="Capa_1" enable-background="new 0 0 512.016 512.016" height="512" viewBox="0 0 512.016 512.016" width="512" xmlns="http://www.w3.org/2000/svg"><g><path d="m6.368 80.354c-5.145 2.007-7.688 7.806-5.681 12.951 2.005 5.138 7.8 7.691 12.951 5.681 5.362-2.092 21.653-10.749 24.822-38.976h29.587c5.523 0 10-4.477 10-10s-4.477-10-10-10h-29.59c-3.333-29.373-20.988-37.822-24.82-39.316-5.145-2.009-10.943.537-12.95 5.681-2.007 5.145.536 10.943 5.681 12.951 1.293.505 12.635 5.652 12.635 30.684 0 24.189-10.525 29.521-12.635 30.344z"/><circle cx="113.003" cy="52.01" r="10"/><path d="m155.035 69.67c7.622 1.776 15.229 3.813 22.761 6.074-15.725 16.435-25.793 40.833-25.793 64.986v5.548c-69.063 3.328-120.221 40.44-135.335 107.492-.676 3 .065 6.144 2.01 8.525s4.89 3.749 7.951 3.672c3.474-.072 6.958-.236 10.436-.49-7.4 25.279-4.551 49.982-4.399 51.239.555 4.568 4.156 8.167 8.724 8.72.344.042 5.576.658 13.523.658.162 0 .335-.002.499-.003-9.897 34.233 4.91 71.827 5.644 73.651 1.735 4.312 6.171 6.805 10.674 6.168.068-.01.629-.09 1.6-.258 5.992 21.891 30.419 37.075 33.547 38.943 1.579.942 3.352 1.414 5.126 1.414 1.772 0 3.544-.471 5.122-1.411.227-.136 3.76-2.261 8.45-5.892 12.891 15.474 30.652 25.531 31.545 26.031 1.517.849 3.2 1.273 4.883 1.273s3.366-.424 4.883-1.273c.893-.5 18.654-10.557 31.545-26.031 4.691 3.632 8.222 5.757 8.45 5.893 1.578.941 3.35 1.411 5.122 1.411 1.773 0 3.547-.471 5.126-1.414 3.128-1.868 27.555-17.052 33.547-38.943 1.225.212 2.048.357 3.001.357 4.031 0 7.732-2.442 9.272-6.267.734-1.823 15.54-39.418 5.643-73.651.164 0 .337.003.499.003 7.946 0 13.18-.616 13.524-.658 4.567-.553 8.168-4.153 8.724-8.72.153-1.257 3.001-25.96-4.399-51.239 3.478.254 6.962.418 10.436.49.069.001.138.002.206.002 2.999 0 5.844-1.347 7.745-3.674 1.945-2.381 2.687-5.525 2.01-8.524-15.057-66.801-65.99-104.151-135.335-107.493v-5.548c0-22.531 11.418-45.957 27.648-57.666 45.414 16.742 86.738 42.071 119.736 73.497l40.561 38.631c3.547 3.378 7.394 6.454 11.437 9.21 12.575 25.149 19.076 60.933 20.371 87.898-58.063 3.164-92.081 33.722-98.584 88.889-.346 2.936.625 5.874 2.651 8.026 2.069 2.196 4.971 3.297 7.854 3.127 3.366-.193 6.663-.499 9.885-.905-2.885 16.236-.89 30.533-.774 31.33.637 4.381 4.079 7.822 8.46 8.458.275.04 4.919.697 11.775.771 3.278 18.313 15.866 34.264 17.549 36.329 2.313 2.84 6.007 4.2 9.635 3.505.111-.021 1.214-.236 3.003-.676 5.756 22.156 30.517 37.559 33.669 39.441 1.579.942 3.353 1.414 5.126 1.414s3.547-.471 5.126-1.414c3.166-1.891 28.137-17.427 33.743-39.747 4.092.8 6.813 1.088 7.013 1.108 3.619.373 7.207-1.261 9.292-4.331 1.41-2.077 11.81-17.907 14.088-35.629 6.704-.09 11.227-.733 11.5-.772 4.379-.638 7.817-4.078 8.454-8.457.117-.799 2.123-15.167-.795-31.456 3.582.469 7.254.814 11.005 1.03 2.951.171 5.827-.975 7.854-3.127s2.998-5.091 2.652-8.027c-6.425-54.493-40.655-85.865-100.152-88.914-.991-22.895-5.398-50.953-13.736-75.509 7.75 2.135 15.798 3.244 23.957 3.244 49.108 0 89.168-39.334 89.978-88.467 1.063-27.568-21.437-51.533-49.978-51.533-27.57 0-50 22.43-50 50s22.43 50 50 50c3.338 0 6.595-.324 9.745-.938-12.73 12.9-30.372 20.938-49.745 20.938-18.212 0-35.333-6.991-48.264-19.301l-40.56-38.63c-4.251-4.049-8.636-7.998-13.138-11.851 25.807-2.899 50.315-14.43 69.032-33.146 3.905-3.905 3.905-10.237 0-14.143-3.906-3.905-10.236-3.905-14.143 0-21.169 21.17-51.292 31.229-80.873 27.103-38.453-27.109-84.168-48.123-134.484-59.848-5.378-1.255-10.755 2.09-12.009 7.469-1.254 5.379 2.09 10.755 7.469 12.008zm36.955 226.878c-.307 17.924-15.993 35.598-29.988 46.938-14.003-11.349-29.682-29.014-29.988-46.939 9.63-10.641 17.114-22.46 21.754-34.136 2.746 2.038 4.722 3.599 8.234 3.599 3.527 0 5.516-1.582 8.233-3.599 4.645 11.69 12.135 23.515 21.755 34.137zm-52.752 76.47c3.67-3.955 6.827-8.182 9.404-12.644.263-.457.501-.907.755-1.361 4.056 3.287 6.838 5.17 7.033 5.3 1.686 1.131 3.629 1.697 5.573 1.697s3.887-.565 5.573-1.697c.194-.13 2.977-2.013 7.033-5.301.257.46.498.915.764 1.378 2.57 4.451 5.725 8.674 9.394 12.628-5.602 10.904-13.994 21.226-22.77 29.631-8.76-8.389-17.178-18.767-22.759-29.631zm52.765-177.008c0 18.113-15.951 36.087-30 47.475-14.064-11.399-30-29.368-30-47.475 0-23.094 8.147-30 30-30 20.954.041 30 5.966 30 30zm-76.264-23.714c-2.502 6.622-3.737 14.494-3.737 23.713 0 7.692 1.745 15.525 5.184 23.382-20.252 12.312-43.013 20.701-66.365 24.383-3.654.581-7.344 1.051-11.048 1.407 12.172-36.715 38.699-61.879 75.966-72.885zm-63.71 133.764c-.229-10.066.57-27.692 7.241-43.448 23.974-4.454 47.264-13.367 68.154-26.039 2.96 3.923 6.327 7.801 10.071 11.611-8.246 30.877-32.305 53.03-67.844 57.089-6.841.781-13.017.889-17.622.787zm25.252 18.352c14.242-2.209 26.759-6.56 37.049-12.836 3.854 13.049 11.941 24.453 19.967 33.247-.902 1.813-1.894 3.671-2.983 5.566-10.557 18.281-33.754 29.011-54.309 34.054-3.77-12.868-9.298-39.129.276-60.031zm34.713 99.498c-6.906-5.177-16.55-14.074-19.255-23.164 9.548-3.097 20.599-7.747 30.884-14.594 2.375 4.173 5.087 8.326 8.147 12.434-1.635 9.715-11.901 19.46-19.776 25.324zm49.985 20.332c-6.227-4.148-15.339-11.167-21.875-19.356 2.577-3.092 4.735-6.207 6.477-9.337 5.217 5.146 8.988 8.124 9.251 8.33 1.812 1.42 3.991 2.13 6.17 2.13s4.358-.71 6.17-2.13c.262-.206 4.034-3.184 9.251-8.329 1.744 3.133 3.905 6.251 6.485 9.345-6.848 8.622-16.275 15.589-21.929 19.347zm50.033-20.331c-7.917-5.896-18.145-15.628-19.777-25.325 3.062-4.109 5.773-8.262 8.147-12.434 10.287 6.85 21.34 11.5 30.884 14.595-2.706 9.092-12.354 17.991-19.254 23.164zm34.97-39.474c-20.49-5.014-43.739-15.777-54.28-34.032-1.095-1.904-2.09-3.766-2.993-5.583 8.027-8.795 16.113-20.199 19.967-33.246 10.289 6.276 22.804 10.626 37.046 12.835 9.515 20.821 4.006 47.136.26 60.026zm24.977-78.376c-4.568.099-10.679-.009-17.443-.77-.082-.011-.164-.019-.247-.027-35.377-4.067-59.492-26.121-67.759-57.079 3.745-3.811 7.111-7.689 10.071-11.611 20.893 12.674 44.185 21.587 68.153 26.039 6.628 15.69 7.439 33.36 7.225 43.448zm12.273-60.88c-3.707-.356-7.4-.827-11.062-1.409-23.341-3.679-46.1-12.069-66.352-24.38 3.439-7.856 5.184-15.689 5.184-23.382 0-9.22-1.235-17.092-3.737-23.713 37.268 11.005 63.795 36.169 75.967 72.884zm147.771-115.171c0-16.542 13.458-30 30-30 17.535 0 30.723 14.995 29.992 30.765-.002.036-.002.072-.004.108-.001.02-.003.04-.003.061-.5 16.299-13.671 29.066-29.985 29.066-16.542 0-30-13.458-30-30zm-50 292c0-1.377.066-2.74.191-4.081 3.674-2.928 7.057-6.564 10.041-10.17 2.481 1.905 4.069 2.979 4.191 3.061 3.372 2.266 7.781 2.267 11.154 0 .122-.082 1.71-1.157 4.191-3.061 2.978 3.598 6.358 7.235 10.041 10.169.125 1.341.191 2.704.191 4.082 0 6.35-4.47 14.057-12.588 21.701-2.634 2.482-5.252 4.583-7.409 6.189-8.47-6.309-20.003-17.332-20.003-27.89zm24.874-36.187c-1.77 1.596-3.426 2.995-4.874 4.169-1.452-1.178-3.111-2.581-4.889-4.182-12.179-10.94-25.111-26.941-25.111-43.291 0-25.219 10.544-30 30-30s30 4.781 30 30c0 16.369-12.947 32.365-25.126 43.304zm-51.55-65.632c-2.202 6.384-3.325 13.829-3.325 22.328 0 3.722.418 7.497 1.231 11.275-9.943 9.903-24.161 14.951-38.068 17.217 5.657-24.82 18.944-41.677 40.162-50.82zm-20.056 66.535c9.918-3.189 18.547-7.625 25.783-13.243 4.677 8.102 10.566 15.207 16.213 20.986-2.94 3.624-5.999 6.959-9.883 9.537-6.405 4.216-15.354 6.883-25.885 7.715-3.514.28-6.757.319-9.466.256-.155-6.552.29-16.211 3.238-25.251zm17.839 43.637c3.29-.603 6.433-1.369 9.426-2.299 1.115 6.513 4.028 12.999 8.709 19.406-2.655 1.13-5.416 2.155-8.801 3.168-3.426-5.224-7.568-12.821-9.334-20.275zm48.894 59.554c-7.483-5.608-18.187-15.588-19.79-25.45 1.251-.589 2.463-1.199 3.642-1.825 5.921 4.879 10.75 7.792 11.014 7.949 3.155 1.887 7.096 1.892 10.258.005.246-.147 4.742-2.852 10.364-7.409 1.347.67 2.74 1.313 4.188 1.924-1.951 9.653-12.364 19.325-19.676 24.806zm41.801-38.876c-4.544-.936-8.179-2.023-11.363-3.184 4.807-6.521 7.846-13.191 9.008-19.798 3.113.968 6.395 1.755 9.831 2.371-1.178 7.47-4.583 15.225-7.476 20.611zm28.167-39.06c-2.754.065-6.063.023-9.64-.269-10.452-.85-19.343-3.515-25.68-7.684-3.909-2.595-6.944-5.896-9.916-9.559 5.655-5.788 11.549-12.899 16.225-21.003 7.152 5.502 15.756 9.881 25.714 13.076 3.005 9.096 3.454 18.846 3.297 25.439zm17.967-40.94c-14.026-2.206-29.071-7.195-39.167-17.248.813-3.781 1.231-7.554 1.231-11.274 0-8.629-1.157-16.172-3.427-22.62 21.921 9.076 35.609 26.031 41.363 51.142z"/></g></svg>